<svg xmlns="http://www.w3.org/2000/svg" width="358" height="88" viewBox="0 0 358 88"><g><g><g><text dominant-baseline="text-before-edge" font-family="'TrebuchetMS','TrebuchetMS-Bold'" font-size="30" font-style="none" font-weight="700"><tspan style="font-kerning:normal" letter-spacing="-.75">l</tspan></text></g></g><g><g><text dominant-baseline="text-before-edge" font-family="'TrebuchetMS','TrebuchetMS-Bold'" font-size="30" font-style="none" font-weight="700" transform="translate(128)"><tspan style="font-kerning:normal" letter-spacing="-.75">kshop</tspan></text></g></g><g><path fill="#ffa687" d="M96.563 20.008c-7.04 0-13.38 3.05-17.838 7.924-2.661-1.627-5.759-2.575-9.066-2.575-3.128 0-6.07.848-8.633 2.317-4.445-4.723-10.683-7.666-17.597-7.666C29.936 20.008 19 31.2 19 45.005s10.937 24.997 24.43 24.997S67.861 58.81 67.861 45.005c0-4.728-1.284-9.148-3.513-12.918a12.21 12.21 0 0 1 5.311-1.224c2.108 0 4.093.54 5.838 1.484a25.31 25.31 0 0 0-3.366 12.658c0 13.805 10.939 24.997 24.432 24.997 13.492 0 24.43-11.192 24.43-24.997s-10.938-24.997-24.43-24.997z"/></g></g></svg>